<?xml version="1.0" encoding="UTF-8"?>
<svg width="1200pt" height="1200pt" version="1.1" viewBox="0 0 1200 1200"
  xmlns="http://www.w3.org/2000/svg">
  <defs>
    <clipPath id="a">
      <path d="m222.14 222.14h755.71v755.71h-755.71z"/>
    </clipPath>
  </defs>
  <path d="m1200 600c0 214.36-114.36 412.44-300 519.62-185.64 107.18-414.36 107.18-600 0-185.64-107.18-300-305.26-300-519.62s114.36-412.44 300-519.62c185.64-107.18 414.36-107.18 600 0 185.64 107.18 300 305.26 300 519.62" fill="#12181f"/>
  <path d="m669.28 600c0 37.566-31.016 68.016-69.277 68.016-38.258 0-69.273-30.449-69.273-68.016 0-37.562 31.016-68.012 69.273-68.012 38.262 0 69.277 30.449 69.277 68.012" fill="#b7b7b7"/>
  <g clip-path="url(#a)">
    <path d="m977.86 600c0-207.82-170.04-377.86-377.86-377.86-207.82 0-377.86 170.04-377.86 377.86s168.78 377.86 377.86 377.86c68.016 0 132.25-18.895 187.67-50.383 11.336 7.5586 23.93 11.336 37.785 11.336 37.785 0 69.273-30.23 69.273-68.016 0-10.078-2.5195-18.895-6.2969-27.711 55.422-65.488 89.43-151.14 89.43-243.08zm-720.45 0c0-188.93 153.66-342.59 342.59-342.59 188.93 0 342.59 153.66 342.59 342.59 0 81.867-28.969 156.18-76.832 215.38-11.336-8.8164-25.191-13.855-40.305-13.855-37.785 0-69.273 30.23-69.273 68.016 0 11.336 2.5195 21.41 7.5586 30.23-49.121 26.449-104.54 41.562-165 41.562-187.67 1.2617-341.34-152.4-341.34-341.33z" fill="#b7b7b7"/>
  </g>
</svg>
